<svg width="24" height="24" viewBox="0 0 24 24" fill="none" xmlns="http://www.w3.org/2000/svg">
<path fill-rule="evenodd" clip-rule="evenodd" d="M3.5 12C3.5 9.74566 4.39553 7.58365 5.98959 5.98959C7.58365 4.39553 9.74566 3.5 12 3.5C14.2543 3.5 16.4163 4.39553 18.0104 5.98959C19.6045 7.58365 20.5 9.74566 20.5 12C20.5 14.2543 19.6045 16.4163 18.0104 18.0104C16.4163 19.6045 14.2543 20.5 12 20.5C9.74566 20.5 7.58365 19.6045 5.98959 18.0104C4.39553 16.4163 3.5 14.2543 3.5 12ZM12.75 7C12.75 6.80109 12.671 6.61032 12.5303 6.46967C12.3897 6.32902 12.1989 6.25 12 6.25C11.8011 6.25 11.6103 6.32902 11.4697 6.46967C11.329 6.61032 11.25 6.80109 11.25 7V12C11.2499 12.1272 11.2822 12.2522 11.3438 12.3635C11.4054 12.4747 11.4942 12.5685 11.602 12.636L14.602 14.511C14.7707 14.6166 14.9744 14.6508 15.1683 14.6061C15.2643 14.584 15.355 14.5433 15.4353 14.4861C15.5155 14.4289 15.5837 14.3565 15.636 14.273C15.6883 14.1895 15.7236 14.0965 15.7399 13.9993C15.7562 13.9022 15.7532 13.8027 15.7311 13.7067C15.709 13.6107 15.6683 13.52 15.6111 13.4397C15.5539 13.3595 15.4815 13.2913 15.398 13.239L12.75 11.584V7Z" fill="black"/>
</svg>
